<svg xmlns="http://www.w3.org/2000/svg" viewBox="0 0 44 36">
  <!-- Row 0 (y=0): 0,f,0,f,0,0,0,f,0,f,0 -->
  <rect x="4" y="0" width="4" height="4" fill="#f97316"/>
  <rect x="12" y="0" width="4" height="4" fill="#f97316"/>
  <rect x="28" y="0" width="4" height="4" fill="#f97316"/>
  <rect x="36" y="0" width="4" height="4" fill="#f97316"/>
  <!-- Row 1 (y=4): 0,f,0,f,0,0,0,f,0,f,0 -->
  <rect x="4" y="4" width="4" height="4" fill="#f97316"/>
  <rect x="12" y="4" width="4" height="4" fill="#f97316"/>
  <rect x="28" y="4" width="4" height="4" fill="#f97316"/>
  <rect x="36" y="4" width="4" height="4" fill="#f97316"/>
  <!-- Row 2 (y=8): 0,0,f,f,f,f,f,f,f,0,0 -->
  <rect x="8"  y="8" width="4" height="4" fill="#f97316"/>
  <rect x="12" y="8" width="4" height="4" fill="#f97316"/>
  <rect x="16" y="8" width="4" height="4" fill="#f97316"/>
  <rect x="20" y="8" width="4" height="4" fill="#f97316"/>
  <rect x="24" y="8" width="4" height="4" fill="#f97316"/>
  <rect x="28" y="8" width="4" height="4" fill="#f97316"/>
  <rect x="32" y="8" width="4" height="4" fill="#f97316"/>
  <!-- Row 3 (y=12): f,f,w,f,f,f,f,f,w,f,f -->
  <rect x="0"  y="12" width="4" height="4" fill="#f97316"/>
  <rect x="4"  y="12" width="4" height="4" fill="#f97316"/>
  <rect x="8"  y="12" width="4" height="4" fill="#ffffff"/>
  <rect x="12" y="12" width="4" height="4" fill="#f97316"/>
  <rect x="16" y="12" width="4" height="4" fill="#f97316"/>
  <rect x="20" y="12" width="4" height="4" fill="#f97316"/>
  <rect x="24" y="12" width="4" height="4" fill="#f97316"/>
  <rect x="28" y="12" width="4" height="4" fill="#f97316"/>
  <rect x="32" y="12" width="4" height="4" fill="#ffffff"/>
  <rect x="36" y="12" width="4" height="4" fill="#f97316"/>
  <rect x="40" y="12" width="4" height="4" fill="#f97316"/>
  <!-- Row 4 (y=16): f,f,f,f,f,f,f,f,f,f,f -->
  <rect x="0"  y="16" width="4" height="4" fill="#f97316"/>
  <rect x="4"  y="16" width="4" height="4" fill="#f97316"/>
  <rect x="8"  y="16" width="4" height="4" fill="#f97316"/>
  <rect x="12" y="16" width="4" height="4" fill="#f97316"/>
  <rect x="16" y="16" width="4" height="4" fill="#f97316"/>
  <rect x="20" y="16" width="4" height="4" fill="#f97316"/>
  <rect x="24" y="16" width="4" height="4" fill="#f97316"/>
  <rect x="28" y="16" width="4" height="4" fill="#f97316"/>
  <rect x="32" y="16" width="4" height="4" fill="#f97316"/>
  <rect x="36" y="16" width="4" height="4" fill="#f97316"/>
  <rect x="40" y="16" width="4" height="4" fill="#f97316"/>
  <!-- Row 5 (y=20): f,f,0,d,d,d,d,d,0,f,f -->
  <rect x="0"  y="20" width="4" height="4" fill="#f97316"/>
  <rect x="4"  y="20" width="4" height="4" fill="#f97316"/>
  <rect x="12" y="20" width="4" height="4" fill="#ea580c"/>
  <rect x="16" y="20" width="4" height="4" fill="#ea580c"/>
  <rect x="20" y="20" width="4" height="4" fill="#ea580c"/>
  <rect x="24" y="20" width="4" height="4" fill="#ea580c"/>
  <rect x="28" y="20" width="4" height="4" fill="#ea580c"/>
  <rect x="36" y="20" width="4" height="4" fill="#f97316"/>
  <rect x="40" y="20" width="4" height="4" fill="#f97316"/>
  <!-- Row 6 (y=24): f,0,f,f,0,f,f,f,0,f,f -->
  <rect x="0"  y="24" width="4" height="4" fill="#f97316"/>
  <rect x="8"  y="24" width="4" height="4" fill="#f97316"/>
  <rect x="12" y="24" width="4" height="4" fill="#f97316"/>
  <rect x="20" y="24" width="4" height="4" fill="#f97316"/>
  <rect x="24" y="24" width="4" height="4" fill="#f97316"/>
  <rect x="28" y="24" width="4" height="4" fill="#f97316"/>
  <rect x="36" y="24" width="4" height="4" fill="#f97316"/>
  <rect x="40" y="24" width="4" height="4" fill="#f97316"/>
  <!-- Row 7 (y=28): 0,f,f,0,0,0,0,0,f,f,0 -->
  <rect x="4"  y="28" width="4" height="4" fill="#f97316"/>
  <rect x="8"  y="28" width="4" height="4" fill="#f97316"/>
  <rect x="32" y="28" width="4" height="4" fill="#f97316"/>
  <rect x="36" y="28" width="4" height="4" fill="#f97316"/>
  <!-- Row 8 (y=32): f,f,0,0,d,0,0,d,0,f,f -->
  <rect x="0"  y="32" width="4" height="4" fill="#f97316"/>
  <rect x="4"  y="32" width="4" height="4" fill="#f97316"/>
  <rect x="16" y="32" width="4" height="4" fill="#ea580c"/>
  <rect x="28" y="32" width="4" height="4" fill="#ea580c"/>
  <rect x="36" y="32" width="4" height="4" fill="#f97316"/>
  <rect x="40" y="32" width="4" height="4" fill="#f97316"/>
</svg>
